<?xml version="1.0" encoding="utf-8"?>
<!-- Svg Vector Icons : http://www.onlinewebfonts.com/icon -->
<!DOCTYPE svg PUBLIC "-//W3C//DTD SVG 1.1//EN" "http://www.w3.org/Graphics/SVG/1.1/DTD/svg11.dtd">
<svg version="1.1" xmlns="http://www.w3.org/2000/svg" xmlns:xlink="http://www.w3.org/1999/xlink" x="0px" y="0px" viewBox="0 0 256 256" enable-background="new 0 0 256 256" xml:space="preserve">
<metadata> Svg Vector Icons : http://www.onlinewebfonts.com/icon </metadata>
<g><g><g><path fill="#000000" d="M99.4,8.4c-3.9,1.2-6.9,3.9-8.7,7.5c-0.9,1.8-19.4,50.8-41.1,108.9C6.5,239.5,8.5,233.7,11.2,239.5c1.8,3.8,5.4,7,9.3,8.2c2.7,0.8,6.6,0.9,22,0.8c26.8-0.3,24.6,1.5,35.7-28.8l7.7-21H128h42.2l7.7,21c8.2,22.5,9.3,24.5,14.4,27.2c2.6,1.3,3.1,1.4,22.7,1.4c18.5,0,20.3-0.1,22.5-1.2c3.2-1.6,6-4.5,7.4-7.6c2.6-5.8,4.6,0.1-39-116.3C183.8,64.3,165,15.1,164.2,14c-1.7-2.6-5.1-4.9-8.3-5.8C152.2,7.1,102.8,7.3,99.4,8.4z M140,115.7l11.7,32.1l-11.8,0.2c-6.5,0.1-17.2,0.1-23.7,0l-11.9-0.2l11.7-32.1c6.4-17.7,11.8-32.2,12-32.2C128.2,83.5,133.6,98,140,115.7z"/></g></g></g>
</svg>